#!OML:ASF H:\ManfredObstacles\Project 1\Capture day 1\Session 1\Male.ASF
:FULLY-SPECIFIED
:DEGREES
463
root 1.06998 16.446 -9.95326 -171.012 5.14973 -185.375
lowerback -9.64762 -0.303311 -7.9103
upperback 2.22062 0.768252 -1.27326
thorax 7.7316 0.0757723 3.22739
lowerneck -0.504247 -1.14726 -6.02822
upperneck -3.27971 -1.18054 8.88725
head -0.863656 -0.54084 3.98868
rclavicle -7.93896e-015 3.19049e-014
rhumerus -30.0929 -12.6886 -84.4384
rradius 32.53
rwrist 28.7945
rhand -0.842976 -3.99408
rfingers 7.12502
rthumb 24.7827 -32.4084
lclavicle -7.93896e-015 3.19049e-014
lhumerus -44.4852 46.347 53.647
lradius 10.4429
lwrist -64.1415
lhand -8.09646 7.43897
lfingers 7.12502
lthumb 17.816 36.6429
rfemur -0.0696137 -2.98333 15.5051
rtibia 26.4267
rfoot -19.743 20.126
rtoes 10.7024
lfemur -21.2053 2.20414 -27.1188
ltibia 7.95139e-015
lfoot 14.9768 -2.95702
ltoes -2.26942
464
root 1.04896 16.4552 -10.1699 -171.262 5.00698 -185.902
lowerback -9.75008 -0.528539 -8.73304
upperback 2.22781 0.608728 -1.37919
thorax 7.8212 -0.033703 3.55085
lowerneck -0.313525 -1.09753 -5.95411
upperneck -3.35514 -1.12048 8.82292
head -0.927735 -0.516759 3.95377
rclavicle -1.78285e-014 7.45443e-015
rhumerus -30.2588 -13.4531 -84.1066
rradius 32.2949
rwrist 29.211
rhand -1.13347 -3.87965
rfingers 7.12502
rthumb 24.5043 -32.3319
lclavicle -1.78285e-014 7.45443e-015
lhumerus -46.3957 48.8573 50.6304
lradius 10.0729
lwrist -67.3982
lhand -8.46857 7.3873
lfingers 7.12502
lthumb 17.4579 36.6234
rfemur 0.46506 -2.42455 14.8351
rtibia 27.3236
rfoot -18.4701 19.7401
rtoes 11.2883
lfemur -20.1311 2.2361 -27.86
ltibia -3.02153e-014
lfoot 14.4224 -4.00953
ltoes -3.60548
465
root 1.02661 16.4575 -10.3796 -172.02 4.65747 -186.411
lowerback -9.208 -0.650045 -9.41422
upperback 2.39385 0.517007 -1.55634
thorax 7.70671 -0.0953853 3.72472
lowerneck -0.272079 -1.24166 -6.00865
upperneck -3.39012 -1.30265 9.03359
head -0.93026 -0.607463 4.04074
rclavicle -8.69683e-015 1.71949e-014
rhumerus -30.7052 -15.1149 -83.5322
rradius 32.3809
rwrist 30.1305
rhand -1.14951 -3.83141
rfingers 7.12502
rthumb 24.4889 -32.2858
lclavicle -8.69683e-015 1.71949e-014
lhumerus -44.1221 48.0438 52.8775
lradius 9.609
lwrist -66.422
lhand -8.79994 8.12766
lfingers 7.12502
lthumb 17.139 37.3917
rfemur 1.39037 -2.16156 14.1799
rtibia 28.5708
rfoot -16.8577 19.4276
rtoes 11.5752
lfemur -18.4834 2.18395 -28.4657
ltibia 3.18055e-015
lfoot 13.9801 -4.74272
ltoes -3.86843
466
root 0.997928 16.4599 -10.5812 -173.268 4.1394 -186.891
lowerback -7.98752 -0.662427 -9.91726
upperback 2.67028 0.473098 -1.76086
thorax 7.31396 -0.112704 3.77467
lowerneck -0.22212 -1.37433 -6.08152
upperneck -3.4211 -1.46842 9.26948
head -0.933651 -0.68976 4.14072
rclavicle 1.11816e-015 -1.15295e-014
rhumerus -31.0774 -15.4556 -83.2099
rradius 32.0283
rwrist 29.6506
rhand -1.6739 -4.05315
rfingers 7.12502
rthumb 23.9861 -32.5746
lclavicle 1.11816e-015 -1.15295e-014
lhumerus -41.8349 46.9559 55.1814
lradius 9.42338
lwrist -65.3454
lhand -8.79023 8.57341
lfingers 7.12502
lthumb 17.1484 37.8367
rfemur 2.62165 -2.3526 13.4461
rtibia 30.18
rfoot -15.0464 19.2375
rtoes 11.0049
lfemur -16.3431 2.06386 -29.0058
ltibia -6.04305e-014
lfoot 13.471 -5.35349
ltoes -3.4537
467
root 0.964046 16.4662 -10.7767 -174.655 3.4459 -187.311
lowerback -6.48195 -0.671898 -10.2753
upperback 2.93216 0.372617 -1.96741
thorax 6.74804 -0.139238 3.73615
lowerneck -0.181661 -1.48072 -6.05354
upperneck -3.23578 -1.62472 9.34138
head -0.867211 -0.769013 4.15927
rclavicle -3.18055e-015 1.82882e-014
rhumerus -31.7806 -16.2115 -82.7001
rradius 31.9814
rwrist 29.5996
rhand -1.75419 -4.13493
rfingers 7.12502
rthumb 23.9091 -32.6665
lclavicle -3.18055e-015 1.82882e-014
lhumerus -39.821 45.6465 57.2615
lradius 9.50079
lwrist -64.0439
lhand -8.51676 8.75939
lfingers 7.12502
lthumb 17.4116 37.9996
rfemur 3.74703 -2.94375 12.6253
rtibia 32.1479
rfoot -13.0489 19.1513
rtoes 9.86477
lfemur -14.0395 1.80399 -29.5315
ltibia 7.95139e-015
lfoot 13.0462 -6.02088
ltoes -3.44455
468
root 0.918355 16.4709 -10.9681 -175.804 3.01236 -187.588
lowerback -5.20216 -0.613968 -10.3899
upperback 3.12922 0.34839 -2.14114
thorax 6.22925 -0.120209 3.61058
lowerneck -0.0400839 -1.58093 -5.96657
upperneck -3.20294 -1.77154 9.28709
head -0.870386 -0.847285 4.12395
rclavicle 5.93869e-015 -3.57812e-015
rhumerus -32.5764 -16.7945 -82.1767
rradius 32.1466
rwrist 29.4138
rhand -1.50917 -4.09854
rfingers 7.12502
rthumb 24.1441 -32.5991
lclavicle 5.93869e-015 -3.57812e-015
lhumerus -38.1197 44.2755 59.0784
lradius 9.87266
lwrist -62.6352
lhand -8.10939 8.60739
lfingers 7.12502
lthumb 17.8036 37.8124
rfemur 4.29459 -3.73343 11.7186
rtibia 34.4711
rfoot -10.696 19.529
rtoes 8.43742
lfemur -11.9634 1.77508 -30.0295
ltibia -2.8625e-014
lfoot 12.3899 -6.60708
ltoes -3.13072
